<svg id="SVGRepo_iconCarrier" xmlns="http://www.w3.org/2000/svg" width="36.602" height="32.461" viewBox="0 0 36.602 32.461">
  <defs>
    <style>
      .cls-1 {
        fill: #004587;
      }
    </style>
  </defs>
  <path id="Caminho_26" data-name="Caminho 26" class="cls-1" d="M38.329,19.957a1.551,1.551,0,0,1-.942-.314L21.575,7.789,5.763,19.643A1.571,1.571,0,1,1,3.878,17.13L20.632,4.564a1.571,1.571,0,0,1,1.885,0L39.271,17.13a1.57,1.57,0,0,1,.314,2.094,1.55,1.55,0,0,1-1.257.733Z" transform="translate(-3.25 -4.25)"/>
  <path id="Caminho_27" data-name="Caminho 27" class="cls-1" d="M31.952,31.787H6.821A1.591,1.591,0,0,1,5.25,30.216v-19.9a1.571,1.571,0,0,1,3.141,0V28.645h21.99V10.321a1.571,1.571,0,0,1,3.141,0v19.9a1.591,1.591,0,0,1-1.571,1.571Z" transform="translate(-1.061 0.674)"/>
  <path id="Caminho_28" data-name="Caminho 28" class="cls-1" d="M19.2,29.051a1.591,1.591,0,0,1-1.571-1.571V14.391H12.391V27.48a1.571,1.571,0,0,1-3.141,0V12.821a1.591,1.591,0,0,1,1.571-1.571H19.2a1.591,1.591,0,0,1,1.571,1.571V27.48A1.591,1.591,0,0,1,19.2,29.051Z" transform="translate(3.315 3.41)"/>
</svg>
