<svg id="SVGRepo_iconCarrier" xmlns="http://www.w3.org/2000/svg" width="34.873" height="34.282" viewBox="0 0 34.873 34.282">
  <defs>
    <style>
      .cls-1 {
        fill: #004587;
      }
    </style>
  </defs>
  <path id="Caminho_14" data-name="Caminho 14" class="cls-1" d="M203.795,83.894l-13.624-9.181,13.92-8.885,13.624,8.885Z" transform="translate(-186.886 -64.421)"/>
  <path id="Caminho_15" data-name="Caminho 15" class="cls-1" d="M182.741,51.744c-.3,0-.3,0-.592-.3l-13.624-9.181c-.3,0-.3-.592-.3-.889s.3-.592.592-.889l13.624-9.181a.9.9,0,0,1,1.185,0l13.92,8.885c.3.3.592.592.592.889s-.3.592-.592.889l-14.216,9.477a1.034,1.034,0,0,1-.592.3ZM171.19,41.378l11.551,7.7,11.847-7.7-11.847-7.7Z" transform="translate(-165.833 -31.086)"/>
  <path id="Caminho_16" data-name="Caminho 16" class="cls-1" d="M125.963,410.411l-16.289-10.958c-.592-.3-.889-1.185-.3-1.481.3-.592.889-.592,1.481-.3l15.4,10.366,15.993-10.366c.592-.3,1.185-.3,1.481.3s.3,1.185-.3,1.481Z" transform="translate(-109.055 -382.645)"/>
  <path id="Caminho_17" data-name="Caminho 17" class="cls-1" d="M125.963,571.326l-16.289-10.958c-.592-.3-.889-.888-.3-1.481.3-.592.889-.592,1.481-.3l15.4,10.366,15.993-10.366c.592-.3,1.185-.3,1.481.3s.3,1.185-.3,1.481Z" transform="translate(-109.055 -537.044)"/>
</svg>
