<svg id="SVGRepo_iconCarrier" xmlns="http://www.w3.org/2000/svg" width="25.469" height="28.478" viewBox="0 0 25.469 28.478">
  <defs>
    <style>
      .cls-1 {
        fill: #004587;
      }

      .cls-2 {
        fill: none;
      }
    </style>
  </defs>
  <path id="Caminho_21" data-name="Caminho 21" class="cls-1" d="M226.606,44.075a7.411,7.411,0,0,1,.232-14.818,7.314,7.314,0,0,1,7.409,7.409,7.512,7.512,0,0,1-7.641,7.409Zm0-12.966a5.557,5.557,0,1,0,5.557,5.557A5.485,5.485,0,0,0,226.606,31.109Z" transform="translate(-213.641 -29.257)"/>
  <path id="Caminho_22" data-name="Caminho 22" class="cls-2" d="M96.759,489.088c0-7.641-5.325-13.66-11.808-13.66s-11.808,6.02-11.808,13.66H96.759Z" transform="translate(-71.985 -461.305)"/>
  <path id="Caminho_23" data-name="Caminho 23" class="cls-1" d="M61.345,461.452H36.571v-.926c0-7.872,5.788-14.355,12.734-14.355s12.734,6.483,12.734,14.355v.926Zm-22.922-1.621h22c-.232-6.714-5.094-11.808-11.113-11.808-5.788,0-10.65,5.094-10.882,11.808Z" transform="translate(-36.571 -432.974)"/>
</svg>
