<svg xmlns="http://www.w3.org/2000/svg" width="88" height="88" viewBox="0 0 88 88">
  <defs>
    <style>
      .cls-1 {
        fill: #004a8d;
      }

      .cls-2 {
        fill: #f7941e;
      }

      .cls-3 {
        fill: #fff;
      }
    </style>
  </defs>
  <g id="Camada_1" data-name="Camada 1" transform="translate(0.026 0.026)">
    <g id="Grupo_12" data-name="Grupo 12">
      <rect id="Retângulo_24" data-name="Retângulo 24" class="cls-1" width="88" height="88" rx="20.9" transform="translate(-0.026 -0.026)"/>
      <g id="Grupo_11" data-name="Grupo 11" transform="translate(25.484 14.186)">
        <path id="Caminho_40" data-name="Caminho 40" class="cls-2" d="M44.641,17.94c-1.506-.024-2.243.658-2.124,2.116-.1,1.363.523,2.148,2.124,2.14H64.859c1.141.063,1.807.539,1.791,1.6a27.319,27.319,0,0,1-5.9,15.3L58.82,40.979c-2.227,1.5-2.512,2.457-.8,3.654,1.545.919,2.251.991,3.265-.174a28.611,28.611,0,0,0,6.967-9.645A37.455,37.455,0,0,0,71.2,19.731c.119-1.395-.38-1.815-1.157-1.791h-25.4Z" transform="translate(-34.302 -17.907)"/>
        <path id="Caminho_41" data-name="Caminho 41" class="cls-3" d="M32.233,20.634c-.262-1.87.23-2.893,1.8-2.7,1.783-.206,2.766.539,2.576,2.7A37.24,37.24,0,0,0,40.364,35.8c2.647,4.137,6.626,8.155,14.353,11.833,8.369,5.12,13.846,13.347,14.353,26.939.317,1.918-.1,2.885-1.72,2.893-2.187.214-2.734-.293-2.584-3.178-.8-11.056-4.629-17.9-10.042-21.486-6.364-5.12-13.228-5.762-18.792-16.652a40.165,40.165,0,0,1-3.685-15.51Z" transform="translate(-32.157 -17.898)"/>
        <path id="Caminho_42" data-name="Caminho 42" class="cls-2" d="M44.967,59.38c-1.53-1.324-2.481-.452-4.01,1.046C32.587,68.55,31.668,82.4,32.325,85c.262.6.816.785,1.815.769,6.134-.063,24.545.349,24.522,0,1.712.206,2.346-.238,2.417-1.53.071-2.6-.872-2.956-3.448-2.671l-19.14.127c-1.292-.1-1.87-.832-1.744-2.187A25.678,25.678,0,0,1,46.956,60.822s-1.522-1.038-1.981-1.442Z" transform="translate(-32.155 -26.369)"/>
      </g>
    </g>
  </g>
</svg>
