<svg id="Camada_1" data-name="Camada 1" xmlns="http://www.w3.org/2000/svg" width="100" height="100" viewBox="0 0 100 100">
  <defs>
    <style>
      .cls-1 {
        fill: #004a8d;
      }

      .cls-2 {
        fill: #f7941e;
      }

      .cls-3 {
        fill: #fff;
      }
    </style>
  </defs>
  <g id="Grupo_12" data-name="Grupo 12">
    <rect id="Retângulo_24" data-name="Retângulo 24" class="cls-1" width="100" height="100" rx="20.9"/>
    <g id="Grupo_11" data-name="Grupo 11" transform="translate(28.998 16.141)">
      <path id="Caminho_40" data-name="Caminho 40" class="cls-2" d="M44.935,17.94c-1.713-.027-2.552.749-2.417,2.408-.108,1.551.6,2.444,2.417,2.435H67.941c1.3.072,2.056.613,2.038,1.822A31.085,31.085,0,0,1,63.27,42.01l-2.2,2.146c-2.534,1.7-2.859,2.8-.911,4.157,1.759,1.046,2.561,1.127,3.716-.2A32.555,32.555,0,0,0,71.8,37.14a42.619,42.619,0,0,0,3.355-17.162c.135-1.587-.433-2.065-1.317-2.038h-28.9Z" transform="translate(-33.171 -17.902)"/>
      <path id="Caminho_41" data-name="Caminho 41" class="cls-3" d="M32.242,21.011c-.3-2.128.262-3.292,2.047-3.075,2.029-.234,3.147.613,2.931,3.075a42.374,42.374,0,0,0,4.275,17.252c3.012,4.708,7.539,9.28,16.332,13.464,9.523,5.826,15.755,15.187,16.332,30.653.361,2.182-.117,3.283-1.957,3.292-2.489.243-3.111-.334-2.94-3.616C68.351,69.475,64,61.684,57.836,57.607c-7.242-5.826-15.052-6.556-21.382-18.947A45.7,45.7,0,0,1,32.26,21.011Z" transform="translate(-32.156 -17.898)"/>
      <path id="Caminho_42" data-name="Caminho 42" class="cls-2" d="M46.733,59.469c-1.741-1.506-2.823-.514-4.563,1.19-9.523,9.244-10.569,25-9.821,27.966.3.685.929.893,2.065.875,6.98-.072,27.93.4,27.9,0,1.948.234,2.669-.271,2.751-1.741.081-2.958-.992-3.364-3.923-3.039l-21.779.144c-1.47-.117-2.128-.947-1.984-2.489A29.218,29.218,0,0,1,49,61.111s-1.732-1.181-2.255-1.641Z" transform="translate(-32.155 -21.907)"/>
    </g>
  </g>
</svg>
