<svg xmlns="http://www.w3.org/2000/svg" width="32.604" height="52.5" viewBox="0 0 32.604 52.5">
  <defs>
    <style>
      .cls-1 {
        fill: #f7941e;
      }

      .cls-2 {
        fill: #fff;
      }
    </style>
  </defs>
  <g id="Camada_1" data-name="Camada 1" transform="translate(0.001 0.002)">
    <g id="Grupo_13" data-name="Grupo 13" transform="translate(-0.001 -0.002)">
      <path id="Caminho_43" data-name="Caminho 43" class="cls-1" d="M12.246.04C10.92.019,10.271.619,10.375,1.9c-.084,1.2.461,1.892,1.871,1.885H30.054c1.005.056,1.592.475,1.578,1.41a24.062,24.062,0,0,1-5.194,13.473l-1.7,1.661c-1.962,1.319-2.213,2.164-.705,3.218,1.361.81,1.983.873,2.876-.154a25.2,25.2,0,0,0,6.136-8.5,32.99,32.99,0,0,0,2.6-13.284C35.744.389,35.3.019,34.62.04H12.246Z" transform="translate(-3.128 -0.011)"/>
      <path id="Caminho_44" data-name="Caminho 44" class="cls-2" d="M.085,2.408C-.146.76.287-.14,1.662.027,3.233-.154,4.1.5,3.931,2.408A32.8,32.8,0,0,0,7.24,15.762c2.332,3.644,5.836,7.183,12.642,10.422,7.372,4.51,12.2,11.756,12.642,23.728.279,1.689-.091,2.541-1.515,2.548-1.927.188-2.408-.258-2.276-2.8-.705-9.738-4.077-15.77-8.845-18.925-5.606-4.51-11.651-5.075-16.552-14.667A35.1,35.1,0,0,1,.085,2.408Z" transform="translate(-0.007 0.002)"/>
      <path id="Caminho_45" data-name="Caminho 45" class="cls-1" d="M11.288,41.4C9.94,40.236,9.1,41,7.755,42.324.384,49.479-.426,61.675.146,63.971c.23.531.719.691,1.6.677,5.4-.056,21.62.307,21.6,0,1.508.182,2.066-.209,2.129-1.347.063-2.29-.768-2.6-3.037-2.353L5.577,61.06c-1.138-.091-1.647-.733-1.536-1.927a22.617,22.617,0,0,1,8.991-16.461s-1.34-.914-1.745-1.271Z" transform="translate(0.001 -12.326)"/>
    </g>
  </g>
</svg>
