<svg id="Camada_1" data-name="Camada 1" xmlns="http://www.w3.org/2000/svg" width="111" height="111" viewBox="0 0 111 111">
  <defs>
    <style>
      .cls-1 {
        fill: #004a8d;
      }

      .cls-2 {
        fill: #f7941e;
      }

      .cls-3 {
        fill: #fff;
      }
    </style>
  </defs>
  <g id="Grupo_12" data-name="Grupo 12">
    <rect id="Retângulo_24" data-name="Retângulo 24" class="cls-1" width="111" height="111" rx="20.9"/>
    <g id="Grupo_11" data-name="Grupo 11">
      <path id="Caminho_40" data-name="Caminho 40" class="cls-2" d="M45.2,17.94c-1.9-.03-2.83.83-2.68,2.67-.12,1.72.66,2.71,2.68,2.7H70.71c1.44.08,2.28.68,2.26,2.02a34.469,34.469,0,0,1-7.44,19.3l-2.44,2.38c-2.81,1.89-3.17,3.1-1.01,4.61,1.95,1.16,2.84,1.25,4.12-.22a36.1,36.1,0,0,0,8.79-12.17A47.258,47.258,0,0,0,78.71,20.2c.15-1.76-.48-2.29-1.46-2.26H45.2Z"/>
      <path id="Caminho_41" data-name="Caminho 41" class="cls-3" d="M32.25,21.35c-.33-2.36.29-3.65,2.27-3.41,2.25-.26,3.49.68,3.25,3.41a46.987,46.987,0,0,0,4.74,19.13c3.34,5.22,8.36,10.29,18.11,14.93C71.18,61.87,78.09,72.25,78.73,89.4c.4,2.42-.13,3.64-2.17,3.65-2.76.27-3.45-.37-3.26-4.01-1.01-13.95-5.84-22.59-12.67-27.11-8.03-6.46-16.69-7.27-23.71-21.01a50.678,50.678,0,0,1-4.65-19.57Z"/>
      <path id="Caminho_42" data-name="Caminho 42" class="cls-2" d="M48.32,59.55c-1.93-1.67-3.13-.57-5.06,1.32C32.7,71.12,31.54,88.59,32.37,91.88c.33.76,1.03.99,2.29.97,7.74-.08,30.97.44,30.94,0,2.16.26,2.96-.3,3.05-1.93.09-3.28-1.1-3.73-4.35-3.37l-24.15.16c-1.63-.13-2.36-1.05-2.2-2.76A32.4,32.4,0,0,1,50.83,61.37s-1.92-1.31-2.5-1.82Z"/>
    </g>
  </g>
</svg>
