<svg xmlns="http://www.w3.org/2000/svg" width="236.376" height="35.898" viewBox="0 0 236.376 35.898">
  <defs>
    <style>
      .cls-1 {
        fill: #004785;
      }

      .cls-2 {
        fill: #d78b34;
      }

      .cls-3 {
        fill: #a4a4a5;
      }
    </style>
  </defs>
  <g id="logo_azul" transform="translate(-45.5 -314.849)">
    <g id="Grupo_9" data-name="Grupo 9" transform="translate(45.5 316.259)">
      <g id="Grupo_8" data-name="Grupo 8">
        <path id="Caminho_31" data-name="Caminho 31" class="cls-1" d="M75.8,343.321a64.934,64.934,0,0,1-2.772,7.647,51.918,51.918,0,0,1-9.272,1.195c-12.091,0-18.256-8.364-18.256-16.918,0-10.849,7.981-17.444,19.4-17.444a57.405,57.405,0,0,1,9.319,1.147c.191,2.294.574,5.353.956,7.886l-1.577.335c-1-3.393-2.342-5.592-4.923-6.691a12.5,12.5,0,0,0-5.066-.86c-8.507,0-12.9,6.786-12.9,14.529C50.709,343.894,56.3,350.2,64,350.2c5.161,0,7.647-2.39,10.227-7.455Z" transform="translate(-45.5 -317.8)"/>
        <path id="Caminho_32" data-name="Caminho 32" class="cls-1" d="M222.213,352.611c-.669,0-1.195-.048-1.864-.1-3.68-.239-5.687-1.195-7.886-4.349-1.864-2.581-3.68-5.783-5.3-8.363-1-1.625-1.673-1.912-4.253-1.912h-1.768v7.933c0,4.3.574,4.54,4.588,4.97v1.434H192.2v-1.434c4.206-.478,4.54-.669,4.54-4.97V325.656c0-4.3-.574-4.445-4.54-4.923V319.3h12.9c3.68,0,6.165.478,8.077,1.72a7.627,7.627,0,0,1,3.441,6.691c0,4.349-2.772,7.073-6.547,8.7.908,1.577,3.106,4.97,4.588,7.217a40.54,40.54,0,0,0,4.014,5.209,7.569,7.569,0,0,0,3.68,2.342Zm-18.686-16.44c2.629,0,4.3-.382,5.544-1.482a7.143,7.143,0,0,0,2.772-6.213c0-5.4-3.584-7.408-7.5-7.408-1.482,0-2.342.191-2.676.526-.478.335-.621.86-.621,2.2V336.17Z" transform="translate(-122.09 -318.583)"/>
        <path id="Caminho_33" data-name="Caminho 33" class="cls-1" d="M274.361,317.8a16.27,16.27,0,0,1,16.392,16.679c0,10.9-7.408,17.635-16.679,17.635-9.7,0-16.775-7.408-16.775-16.918C257.252,326.211,263.7,317.8,274.361,317.8Zm-1,1.864c-5.687,0-10.849,4.779-10.849,14.194s5.161,16.345,12.33,16.345c6.117,0,10.705-4.54,10.705-14.337C285.592,325.3,279.953,319.664,273.358,319.664Z" transform="translate(-156.077 -317.8)"/>
        <path id="Caminho_34" data-name="Caminho 34" class="cls-1" d="M370.991,320.682c-3.25.335-4.3.86-4.445,3.2-.048,1.625-.143,3.728-.143,8.459v20.264h-1.912l-21.65-26.476v12.665c0,4.54.143,6.834.239,8.316.1,2.581,1.386,3.345,5.018,3.632v1.434H335.817v-1.434c3.154-.239,4.349-1,4.54-3.489.143-1.625.239-3.919.239-8.507v-12.9a4.39,4.39,0,0,0-1-3.345c-.956-1.243-2.007-1.577-4.492-1.816v-1.434h7.6l21.458,25.425V332.295c0-4.684-.1-6.882-.239-8.411-.143-2.294-1.338-2.963-5.353-3.25V319.2h12.474v1.482Z" transform="translate(-196.696 -318.531)"/>
        <path id="Caminho_35" data-name="Caminho 35" class="cls-1" d="M434.961,317.8a16.27,16.27,0,0,1,16.392,16.679c0,10.9-7.408,17.635-16.679,17.635-9.7,0-16.775-7.408-16.775-16.918C417.852,326.211,424.256,317.8,434.961,317.8Zm-1.051,1.864c-5.687,0-10.849,4.779-10.849,14.194s5.161,16.345,12.33,16.345c6.117,0,10.705-4.54,10.705-14.337C446.192,325.3,440.553,319.664,433.91,319.664Z" transform="translate(-239.924 -317.8)"/>
        <path id="Caminho_36" data-name="Caminho 36" class="cls-1" d="M515.24,326.259c-.86-3.345-2.485-6.691-6.93-6.691-3.967,0-5.448,2.772-5.448,5.448,0,3.632,2.437,5.4,6.4,7.455,4.014,2.007,8.7,4.349,8.7,10.084,0,5.353-4.54,9.606-11.088,9.606a25.3,25.3,0,0,1-7.79-1.577c-.335-1.243-1-5.4-1.386-7.79l1.577-.382c.86,3.154,3.106,7.886,8.316,7.886,3.823,0,6.07-2.39,6.07-6.022,0-3.776-2.629-5.5-6.547-7.6-3.3-1.768-8.363-4.253-8.363-10.036,0-4.875,3.584-8.841,10.275-8.841a47.252,47.252,0,0,1,6.93.86c.191,1.816.382,4.014.812,7.264Z" transform="translate(-281.587 -317.8)"/>
      </g>
    </g>
    <g id="Grupo_10" data-name="Grupo 10" transform="translate(86.932 314.849)">
      <path id="Caminho_37" data-name="Caminho 37" class="cls-2" d="M143.886,314.9c-.908,0-1.338.382-1.29,1.29-.048.812.335,1.29,1.29,1.29h12.187c.669.048,1.1.335,1.1.956a16.624,16.624,0,0,1-3.537,9.224l-1.147,1.147c-1.338.908-1.529,1.482-.478,2.2.956.574,1.338.574,1.959-.1a17.138,17.138,0,0,0,4.206-5.831,22.133,22.133,0,0,0,1.768-9.08c.1-.86-.239-1.1-.717-1.1Z" transform="translate(-137.622 -314.875)"/>
      <path id="Caminho_38" data-name="Caminho 38" class="cls-3" d="M132.262,316.5c-.143-1.147.143-1.768,1.1-1.625,1.1-.143,1.673.335,1.529,1.625a23.143,23.143,0,0,0,2.246,9.128c1.577,2.485,4.014,4.923,8.65,7.121,5.066,3.106,8.364,8.029,8.65,16.249.191,1.147-.048,1.72-1.051,1.72-1.338.143-1.625-.191-1.577-1.912-.478-6.643-2.772-10.8-6.069-12.951-3.823-3.106-7.981-3.489-11.327-10.036A25.473,25.473,0,0,1,132.262,316.5Z" transform="translate(-132.211 -314.849)"/>
      <path id="Caminho_39" data-name="Caminho 39" class="cls-2" d="M139.939,356.06c-.908-.812-1.482-.287-2.437.621-5.066,4.923-5.592,13.238-5.209,14.815.143.382.478.478,1.1.478,3.68-.048,14.815.191,14.768,0,1.051.143,1.434-.143,1.482-.908.048-1.577-.526-1.768-2.055-1.625l-11.518.1c-.765-.048-1.147-.478-1.051-1.338a15.6,15.6,0,0,1,6.165-11.279A12.271,12.271,0,0,1,139.939,356.06Z" transform="translate(-132.193 -336.155)"/>
    </g>
  </g>
</svg>
